<svg width="16" height="16" viewBox="0 0 16 16" fill="none" xmlns="http://www.w3.org/2000/svg">
<path d="M12.5 9C13.4283 9 14.3185 9.36875 14.9749 10.0251C15.6313 10.6815 16 11.5717 16 12.5C16 13.4283 15.6313 14.3185 14.9749 14.9749C14.3185 15.6313 13.4283 16 12.5 16C11.5717 16 10.6815 15.6313 10.0251 14.9749C9.36875 14.3185 9 13.4283 9 12.5C9 11.5717 9.36875 10.6815 10.0251 10.0251C10.6815 9.36875 11.5717 9 12.5 9Z" fill="black"/>
<path d="M11.7925 10.586H13.9138C13.9796 10.5859 14.0447 10.5988 14.1055 10.6239C14.1663 10.649 14.2215 10.6859 14.268 10.7324C14.3145 10.7789 14.3514 10.8341 14.3765 10.8949C14.4016 10.9557 14.4145 11.0208 14.4144 11.0866V13.2079C14.4144 13.3407 14.3617 13.468 14.2678 13.5619C14.1739 13.6558 14.0466 13.7085 13.9138 13.7085C13.781 13.7085 13.6537 13.6558 13.5598 13.5619C13.4659 13.468 13.4132 13.3407 13.4132 13.2079L13.4139 12.2936L11.4389 14.2686C11.3452 14.3623 11.218 14.415 11.0854 14.415C10.9528 14.415 10.8256 14.3623 10.7318 14.2686C10.6381 14.1748 10.5854 14.0476 10.5854 13.915C10.5854 13.7824 10.6381 13.6552 10.7318 13.5615L12.7068 11.5865L11.7925 11.5872C11.6597 11.5872 11.5324 11.5345 11.4385 11.4406C11.3446 11.3467 11.2919 11.2194 11.2919 11.0866C11.2919 10.9538 11.3446 10.8265 11.4385 10.7326C11.5324 10.6387 11.6597 10.586 11.7925 10.586Z" fill="white"/>
<path d="M12.096 6.223C12.4148 6.08007 12.7178 5.90411 13 5.698V7C13 7.289 12.787 7.654 12.247 8.007C12.8421 7.97341 13.438 8.05839 14 8.257V4C14 2.993 13.125 2.245 12.096 1.777C11.022 1.289 9.573 1 8 1C6.427 1 4.978 1.289 3.904 1.777C2.875 2.245 2 2.993 2 4V13C2 14.007 2.875 14.755 3.904 15.223C4.978 15.71 6.427 16 8 16C8.536 16 9.058 15.966 9.555 15.903C9.24275 15.6328 8.96918 15.3208 8.742 14.976C8.49933 14.992 8.252 15 8 15C6.536 15 5.234 14.73 4.318 14.313C3.356 13.875 3 13.373 3 13V11.698C3.271 11.9 3.58 12.076 3.904 12.223C4.978 12.71 6.427 13 8 13H8.027C7.99066 12.6677 7.99066 12.3323 8.027 12H8C6.536 12 5.234 11.73 4.318 11.313C3.356 10.875 3 10.373 3 10V8.698C3.271 8.9 3.58 9.076 3.904 9.223C4.978 9.71 6.427 10 8 10C8.262 10 8.52 9.992 8.774 9.976C9.07171 9.53663 9.44479 9.1534 9.876 8.844C9.298 8.944 8.666 9 8 9C6.536 9 5.234 8.73 4.318 8.313C3.356 7.875 3 7.373 3 7V5.698C3.271 5.9 3.58 6.076 3.904 6.223C4.978 6.711 6.427 7 8 7C9.573 7 11.022 6.711 12.096 6.223ZM3 4C3 3.626 3.356 3.125 4.318 2.687C5.234 2.271 6.536 2 8 2C9.464 2 10.766 2.27 11.682 2.687C12.644 3.125 13 3.627 13 4C13 4.374 12.644 4.875 11.682 5.313C10.766 5.729 9.464 6 8 6C6.536 6 5.234 5.73 4.318 5.313C3.356 4.875 3 4.373 3 4Z" fill="black"/>
</svg>
