<svg width="22" height="22" viewBox="0 0 22 22" fill="none" xmlns="http://www.w3.org/2000/svg">
<g clip-path="url(#clip0_57_5)">
<path d="M15.2837 11.5515L6.93228 16.3972C6.22353 16.8081 5.31396 16.3106 5.31396 15.4824L5.31396 5.79094C5.31396 4.96406 6.22221 4.46531 6.93228 4.87744L15.2837 9.72319C15.4449 9.81522 15.579 9.94826 15.6722 10.1088C15.7654 10.2694 15.8145 10.4517 15.8145 10.6373C15.8145 10.823 15.7654 11.0053 15.6722 11.1659C15.579 11.3264 15.4449 11.4595 15.2837 11.5515Z" fill="#909090"/>
<g clip-path="url(#clip1_57_5)">
<path d="M15.2837 11.5515L6.93228 16.3972C6.22353 16.8081 5.31396 16.3106 5.31396 15.4824L5.31396 5.79094C5.31396 4.96406 6.22221 4.46531 6.93228 4.87744L15.2837 9.72319C15.4449 9.81522 15.579 9.94826 15.6722 10.1088C15.7654 10.2694 15.8145 10.4517 15.8145 10.6373C15.8145 10.823 15.7654 11.0053 15.6722 11.1659C15.579 11.3264 15.4449 11.4595 15.2837 11.5515Z" fill="#909090"/>
<g clip-path="url(#clip2_57_5)">
<path d="M17.5878 16.096H19.8119C19.8387 16.096 19.8651 16.1037 19.8877 16.1181C19.9104 16.1325 19.9285 16.1531 19.9399 16.1774C19.9513 16.2018 19.9555 16.2288 19.9521 16.2555C19.9486 16.2821 19.9377 16.3073 19.9205 16.3279L18.8085 17.6628C18.7952 17.6787 18.7786 17.6915 18.7598 17.7003C18.741 17.7091 18.7206 17.7136 18.6999 17.7136C18.6791 17.7136 18.6587 17.7091 18.6399 17.7003C18.6211 17.6915 18.6045 17.6787 18.5913 17.6628L17.4792 16.3279C17.462 16.3073 17.4511 16.2821 17.4476 16.2555C17.4442 16.2288 17.4484 16.2018 17.4598 16.1774C17.4712 16.1531 17.4893 16.1325 17.512 16.1181C17.5347 16.1037 17.561 16.096 17.5878 16.096ZM11.366 17.2272H13.59C13.6169 17.2272 13.6432 17.2196 13.6659 17.2051C13.6885 17.1907 13.7066 17.1701 13.718 17.1458C13.7294 17.1215 13.7336 17.0944 13.7302 17.0677C13.7268 17.0411 13.7158 17.016 13.6986 16.9953L12.5866 15.6605C12.5733 15.6445 12.5567 15.6317 12.5379 15.623C12.5192 15.6142 12.4987 15.6096 12.478 15.6096C12.4573 15.6096 12.4368 15.6142 12.418 15.623C12.3993 15.6317 12.3827 15.6445 12.3694 15.6605L11.2574 16.9953C11.2402 17.016 11.2292 17.0411 11.2258 17.0677C11.2223 17.0944 11.2266 17.1215 11.238 17.1458C11.2494 17.1701 11.2674 17.1907 11.2901 17.2051C11.3128 17.2196 11.3391 17.2272 11.366 17.2272Z" fill="#909090"/>
<path fill-rule="evenodd" clip-rule="evenodd" d="M15.589 13.8334C14.7111 13.8334 13.9261 14.2333 13.4074 14.8617C13.3842 14.8917 13.3553 14.9168 13.3222 14.9354C13.2892 14.954 13.2527 14.9658 13.2151 14.97C13.1774 14.9742 13.1392 14.9709 13.1029 14.9601C13.0665 14.9493 13.0327 14.9313 13.0035 14.9071C12.9742 14.883 12.9501 14.8532 12.9326 14.8196C12.9151 14.786 12.9045 14.7492 12.9015 14.7114C12.8985 14.6736 12.9032 14.6356 12.9151 14.5996C12.9271 14.5636 12.9462 14.5304 12.9713 14.502C13.3854 14.0006 13.9349 13.6287 14.5543 13.4305C15.1737 13.2323 15.837 13.2162 16.4652 13.3841C17.0935 13.552 17.6604 13.8969 18.0983 14.3776C18.5363 14.8583 18.827 15.4548 18.9358 16.0959H18.3606C18.2302 15.4571 17.8831 14.883 17.378 14.4707C16.873 14.0584 16.241 13.8333 15.589 13.8334ZM12.8174 17.2272C12.9245 17.7502 13.1774 18.2322 13.5468 18.6176C13.9162 19.0029 14.3871 19.2759 14.9051 19.405C15.4231 19.5341 15.9671 19.5139 16.4741 19.347C16.9812 19.18 17.4307 18.873 17.7706 18.4614C17.7938 18.4313 17.8227 18.4063 17.8558 18.3877C17.8888 18.3691 17.9252 18.3573 17.9629 18.3531C18.0006 18.3488 18.0387 18.3522 18.0751 18.363C18.1114 18.3738 18.1452 18.3918 18.1745 18.416C18.2037 18.4401 18.2278 18.4698 18.2453 18.5035C18.2629 18.5371 18.2734 18.5739 18.2764 18.6117C18.2794 18.6495 18.2748 18.6875 18.2628 18.7235C18.2509 18.7595 18.2318 18.7927 18.2067 18.8211C17.7926 19.3225 17.2431 19.6944 16.6237 19.8926C16.0043 20.0908 15.341 20.1069 14.7127 19.939C14.0845 19.7711 13.5176 19.4262 13.0796 18.9455C12.6417 18.4648 12.351 17.8683 12.2422 17.2272H12.8174Z" fill="#909090"/>
</g>
</g>
</g>
<defs>
<clipPath id="clip0_57_5">
<rect width="21" height="21" fill="white" transform="translate(0.0639648 0.136719)"/>
</clipPath>
<clipPath id="clip1_57_5">
<rect width="21" height="21" fill="white" transform="translate(0.0639648 0.136719)"/>
</clipPath>
<clipPath id="clip2_57_5">
<rect width="9.05" height="9.05" fill="white" transform="translate(11.064 12.1366)"/>
</clipPath>
</defs>
</svg>
