<svg width="21" height="21" viewBox="0 0 21 21" fill="none" xmlns="http://www.w3.org/2000/svg">
<g clip-path="url(#clip0_57_17)">
<path d="M15.2197 11.4148L6.86831 16.2605C6.15956 16.6713 5.25 16.1739 5.25 15.3457L5.25 5.65422C5.25 4.82734 6.15825 4.32859 6.86831 4.74072L15.2197 9.58647C15.381 9.6785 15.515 9.81154 15.6082 9.97209C15.7014 10.1326 15.7505 10.315 15.7505 10.5006C15.7505 10.6863 15.7014 10.8686 15.6082 11.0292C15.515 11.1897 15.381 11.3227 15.2197 11.4148Z" fill="#909090"/>
<path d="M15.2197 11.4148L6.86831 16.2605C6.15956 16.6713 5.25 16.1739 5.25 15.3457L5.25 5.65422C5.25 4.82734 6.15825 4.32859 6.86831 4.74072L15.2197 9.58647C15.381 9.6785 15.515 9.81154 15.6082 9.97209C15.7014 10.1326 15.7505 10.315 15.7505 10.5006C15.7505 10.6863 15.7014 10.8686 15.6082 11.0292C15.515 11.1897 15.381 11.3227 15.2197 11.4148Z" fill="#909090"/>
</g>
<defs>
<clipPath id="clip0_57_17">
<rect width="21" height="21" fill="white"/>
</clipPath>
</defs>
</svg>
