<svg width="21" height="21" viewBox="0 0 21 21" fill="none" xmlns="http://www.w3.org/2000/svg">
<g clip-path="url(#clip0_57_17)">
<path d="M15.2197 11.4148L6.86831 16.2605C6.15956 16.6713 5.25 16.1739 5.25 15.3457L5.25 5.65422C5.25 4.82734 6.15825 4.32859 6.86831 4.74072L15.2197 9.58647C15.381 9.6785 15.515 9.81154 15.6082 9.97209C15.7014 10.1326 15.7505 10.315 15.7505 10.5006C15.7505 10.6863 15.7014 10.8686 15.6082 11.0292C15.515 11.1897 15.381 11.3227 15.2197 11.4148Z" fill="#909090"/>
<path d="M15.2197 11.4148L6.86831 16.2605C6.15956 16.6713 5.25 16.1739 5.25 15.3457L5.25 5.65422C5.25 4.82734 6.15825 4.32859 6.86831 4.74072L15.2197 9.58647C15.381 9.6785 15.515 9.81154 15.6082 9.97209C15.7014 10.1326 15.7505 10.315 15.7505 10.5006C15.7505 10.6863 15.7014 10.8686 15.6082 11.0292C15.515 11.1897 15.381 11.3227 15.2197 11.4148Z" fill="#909090"/>
<path fill-rule="evenodd" clip-rule="evenodd" d="M11.0013 17.224C11.0012 17.1019 11.0433 16.9848 11.1183 16.8985C11.1933 16.8121 11.295 16.7637 11.4011 16.7637L16.036 16.7658L14.3175 14.7886C14.2423 14.7021 14.2001 14.5848 14.2 14.4625C14.2 14.3403 14.2421 14.223 14.3172 14.1366C14.3923 14.0501 14.4941 14.0016 14.6004 14.0017C14.7066 14.0017 14.8085 14.0503 14.8837 14.1368L17.285 16.9009C17.3223 16.9437 17.3519 16.9945 17.3721 17.0505C17.3922 17.1064 17.4026 17.1664 17.4027 17.227C17.4027 17.2875 17.3923 17.3475 17.3722 17.4034C17.3521 17.4594 17.3225 17.5102 17.2853 17.5529L14.8861 20.3148C14.811 20.4012 14.7092 20.4497 14.603 20.4497C14.4967 20.4496 14.3948 20.401 14.3197 20.3145C14.2445 20.228 14.2023 20.1107 14.2022 19.9884C14.2022 19.8662 14.2443 19.7489 14.3194 19.6625L16.0364 17.6868L11.4015 17.6847C11.2954 17.6846 11.1936 17.6361 11.1186 17.5497C11.0435 17.4633 11.0013 17.3461 11.0013 17.224Z" fill="#909090"/>
</g>
<defs>
<clipPath id="clip0_57_17">
<rect width="21" height="21" fill="white"/>
</clipPath>
</defs>
</svg>
