<svg width="21" height="21" viewBox="0 0 21 21" fill="none" xmlns="http://www.w3.org/2000/svg">
<path d="M6.09783 6.09783C6.15879 6.03671 6.2312 5.98823 6.31093 5.95514C6.39066 5.92206 6.47613 5.90503 6.56245 5.90503C6.64877 5.90503 6.73424 5.92206 6.81397 5.95514C6.8937 5.98823 6.96612 6.03671 7.02708 6.09783L10.5 9.57201L13.9728 6.09783C14.0338 6.03681 14.1063 5.98841 14.186 5.95539C14.2657 5.92237 14.3512 5.90537 14.4375 5.90537C14.5237 5.90537 14.6092 5.92237 14.6889 5.95539C14.7686 5.98841 14.8411 6.03681 14.9021 6.09783C14.9631 6.15884 15.0115 6.23128 15.0445 6.311C15.0775 6.39072 15.0945 6.47616 15.0945 6.56245C15.0945 6.64874 15.0775 6.73419 15.0445 6.81391C15.0115 6.89363 14.9631 6.96606 14.9021 7.02708L11.4279 10.5L14.9021 13.9728C14.9631 14.0338 15.0115 14.1063 15.0445 14.186C15.0775 14.2657 15.0945 14.3512 15.0945 14.4375C15.0945 14.5237 15.0775 14.6092 15.0445 14.6889C15.0115 14.7686 14.9631 14.8411 14.9021 14.9021C14.8411 14.9631 14.7686 15.0115 14.6889 15.0445C14.6092 15.0775 14.5237 15.0945 14.4375 15.0945C14.3512 15.0945 14.2657 15.0775 14.186 15.0445C14.1063 15.0115 14.0338 14.9631 13.9728 14.9021L10.5 11.4279L7.02708 14.9021C6.96606 14.9631 6.89363 15.0115 6.81391 15.0445C6.73419 15.0775 6.64874 15.0945 6.56245 15.0945C6.47616 15.0945 6.39072 15.0775 6.311 15.0445C6.23128 15.0115 6.15884 14.9631 6.09783 14.9021C6.03681 14.8411 5.98841 14.7686 5.95539 14.6889C5.92237 14.6092 5.90537 14.5237 5.90537 14.4375C5.90537 14.3512 5.92237 14.2657 5.95539 14.186C5.98841 14.1063 6.03681 14.0338 6.09783 13.9728L9.57201 10.5L6.09783 7.02708C6.03671 6.96612 5.98823 6.8937 5.95514 6.81397C5.92206 6.73424 5.90503 6.64877 5.90503 6.56245C5.90503 6.47613 5.92206 6.39066 5.95514 6.31093C5.98823 6.2312 6.03671 6.15879 6.09783 6.09783Z" fill="#909090"/>
</svg>
